# File created by Blade
# Date/Time:  Tue Jan 27 17:27:44 2015
#---------------------------------------------------------
:version 1.10
:name HOM
:units
  mass 1.0
  length 1.000000
  angle deg
:documentation
     Acclaim Skeleton File
:root
   axis xyz
   order TX TY TZ RX RY RZ
   position 0.000000 0.000000 0.000000
   orientation 0 0 0
:bonedata
   begin
      id 1
      name Spine_dum
      direction 0.000000 1.000000 0.000000
      length 7.539951
      axis 0.0 0.0 0.0 xyz
   end
   begin
      id 2
      name LeftUpLeg_dum
      direction 1.000000 0.000000 0.000000
      length 3.345476
      axis 0.0 0.0 0.0 xyz
   end
   begin
      id 3
      name RightUpLeg_dum
      direction -1.000000 0.000000 0.000000
      length 3.345476
      axis 0.0 0.0 0.0 xyz
   end
   begin
      id 4
      name Spine
      direction 0.000000 1.000000 0.000000
      length 0.000000
      axis 0.0 0.0 0.0 xyz
      dof rx ry rz
   end
   begin
      id 5
      name Spine_dum1
      direction 0.000000 1.000000 0.000000
      length 15.093809
      axis 0.0 0.0 0.0 xyz
   end
   begin
      id 6
      name Spine_dum2
      direction 0.000000 1.000000 0.000000
      length 9.738928
      axis 0.0 0.0 0.0 xyz
   end
   begin
      id 7
      name Spine_dum3
      direction 0.000000 1.000000 0.000000
      length 9.738928
      axis 0.0 0.0 0.0 xyz
   end
   begin
      id 8
      name Head
      direction 0.000000 1.000000 0.000000
      length 4.527550
      axis 0.0 0.0 0.0 xyz
      dof rx ry rz
   end
   begin
      id 9
      name LeftShoulder
      direction 1.000000 0.000000 0.000000
      length 7.084015
      axis 0.0 0.0 -90.0 xyz
      dof rx ry rz
   end
   begin
      id 10
      name LeftArm
      direction 1.000000 0.000000 0.000000
      length 10.259319
      axis 0.0 0.0 -90.0 xyz
      dof rx ry rz
   end
   begin
      id 11
      name LeftForeArm
      direction 1.000000 0.000000 0.000000
      length 9.896984
      axis 0.0 0.0 -90.0 xyz
      dof ry rz rx
   end
   begin
      id 12
      name LeftHand
      direction 0.000000 0.000000 0.000000
      length 0.000000
      axis 0.0 0.0 -90.0 xyz
      dof rx ry rz
   end
   begin
      id 13
      name LeftHand_dum1
      direction 0.000000 0.000000 0.000000
      length 0.000000
      axis 0.0 0.0 -90.0 xyz
   end
   begin
      id 14
      name LeftHand_dum2
      direction 1.000000 0.000000 0.000000
      length 3.937000
      axis 0.0 0.0 -90.0 xyz
   end
   begin
      id 15
      name LeftHandThumb1
      direction 0.000000 0.000000 1.000000
      length 3.937000
      axis 0.0 0.0 -90.0 xyz
      dof rx rz ry
   end
   begin
      id 16
      name RightShoulder
      direction -1.000000 0.000000 0.000000
      length 7.084015
      axis 0.0 0.0 90.0 xyz
      dof rx ry rz
   end
   begin
      id 17
      name RightArm
      direction -1.000000 0.000000 0.000000
      length 10.259319
      axis 0.0 0.0 90.0 xyz
      dof rx ry rz
   end
   begin
      id 18
      name RightForeArm
      direction -1.000000 0.000000 0.000000
      length 9.896984
      axis 0.0 0.0 90.0 xyz
      dof ry rz rx
   end
   begin
      id 19
      name RightHand
      direction 0.000000 0.000000 0.000000
      length 0.000000
      axis 0.0 0.0 90.0 xyz
      dof rx ry rz
   end
   begin
      id 20
      name RightHand_dum1
      direction 0.000000 0.000000 0.000000
      length 0.000000
      axis 0.0 0.0 90.0 xyz
   end
   begin
      id 21
      name RightHand_dum2
      direction -1.000000 0.000000 0.000000
      length 3.937000
      axis 0.0 0.0 90.0 xyz
   end
   begin
      id 22
      name RightHandThumb1
      direction 0.000000 0.000000 1.000000
      length 3.937000
      axis 0.0 0.0 90.0 xyz
      dof rx rz ry
   end
   begin
      id 23
      name LeftUpLeg
      direction 0.000000 -1.000000 0.000000
      length 19.114733
      axis 0.0 0.0 0.0 xyz
      dof rx ry rz
   end
   begin
      id 24
      name LeftLeg
      direction 0.000000 -1.000000 0.000000
      length 16.045604
      axis 0.0 0.0 0.0 xyz
      dof rx ry rz
   end
   begin
      id 25
      name LeftFoot
      direction 0.000000 -0.258819 0.965926
      length 5.543155
      axis 15.0 0.0 0.0 xyz
      dof rx ry rz
   end
   begin
      id 26
      name LeftToeBase
      direction 0.000000 0.000000 1.000000
      length 2.952750
      axis 0.0 0.0 0.0 xyz
      dof rx ry rz
   end
   begin
      id 27
      name RightUpLeg
      direction 0.000000 -1.000000 0.000000
      length 19.114733
      axis 0.0 0.0 0.0 xyz
      dof rx ry rz
   end
   begin
      id 28
      name RightLeg
      direction 0.000000 -1.000000 0.000000
      length 16.045604
      axis 0.0 0.0 0.0 xyz
      dof rx ry rz
   end
   begin
      id 29
      name RightFoot
      direction 0.000000 -0.258819 0.965926
      length 5.543155
      axis 15.0 0.0 0.0 xyz
      dof rx ry rz
   end
   begin
      id 30
      name RightToeBase
      direction 0.000000 0.000000 1.000000
      length 2.952750
      axis 0.0 0.0 0.0 xyz
      dof rx ry rz
   end
:hierarchy
   begin
      root Spine_dum LeftUpLeg_dum RightUpLeg_dum
      Spine_dum Spine
      LeftUpLeg_dum LeftUpLeg
      RightUpLeg_dum RightUpLeg
      Spine Spine_dum1 Spine_dum2 Spine_dum3
      Spine_dum1 Head
      Spine_dum2 LeftShoulder
      Spine_dum3 RightShoulder
      LeftShoulder LeftArm
      LeftArm LeftForeArm
      LeftForeArm LeftHand
      LeftHand LeftHand_dum1 LeftHand_dum2
      LeftHand_dum1 LeftHandThumb1
      RightShoulder RightArm
      RightArm RightForeArm
      RightForeArm RightHand
      RightHand RightHand_dum1 RightHand_dum2
      RightHand_dum1 RightHandThumb1
      LeftUpLeg LeftLeg
      LeftLeg LeftFoot
      LeftFoot LeftToeBase
      RightUpLeg RightLeg
      RightLeg RightFoot
      RightFoot RightToeBase
   end

# File created by Blade
# Date/Time:  Tue Jan 27 17:27:32 2015
# Frame Rate: 120.000 fps
#------------------------------------------------------
:FULLY-SPECIFIED
:DEGREES
239
root 4.783005 36.604872 1.354185 -0.068975 -0.730073 0.966898
Spine 4.672856 8.672060 -7.272974
Head 12.972544 -5.615511 6.777921
LeftShoulder -7.774640 -7.930453 11.325955
LeftArm -12.927735 -34.088172 -41.255739
LeftForeArm 3.689424 -0.000000 98.977720
LeftHand -17.006039 -0.000000 26.639949
LeftHandThumb1 -26.253704 0.000000 33.147579
RightShoulder -10.684298 -19.201591 2.345988
RightArm 21.670272 -26.503196 59.507623
RightForeArm 178.230018 -0.000000 33.821527
RightHand 1.614986 0.000000 -0.140514
RightHandThumb1 -24.326973 -0.000000 -32.862282
LeftUpLeg 0.458191 5.600127 -5.788725
LeftLeg 9.757569 -0.000000 -0.000000
LeftFoot -19.980407 3.672281 -13.217628
LeftToeBase 14.661829 -0.000000 -0.000000
RightUpLeg -14.183270 -10.756481 -7.840763
RightLeg 77.003099 -0.000000 -0.000000
RightFoot -5.317608 -4.018853 10.832317
RightToeBase 1.159893 -0.000000 -0.000000
240
root 4.775296 36.604349 1.341864 -0.083370 -0.717140 0.976776
Spine 4.680941 8.678498 -7.296221
Head 12.860160 -5.667364 6.826080
LeftShoulder -7.735440 -7.930486 11.213507
LeftArm -12.929962 -33.811633 -40.877068
LeftForeArm 3.480268 0.000000 98.960270
LeftHand -17.095105 -0.000000 26.883526
LeftHandThumb1 -26.253704 0.000000 33.147579
RightShoulder -10.661137 -19.202170 2.337436
RightArm 21.657584 -26.588040 59.539534
RightForeArm 178.163700 -0.000000 33.817257
RightHand 1.621180 0.000000 -0.225077
RightHandThumb1 -24.326973 -0.000000 -32.862282
LeftUpLeg 0.451212 5.526342 -5.781701
LeftLeg 9.782192 -0.000000 -0.000000
LeftFoot -19.946559 3.685178 -13.147523
LeftToeBase 14.508649 -0.000000 -0.000000
RightUpLeg -14.296911 -10.731838 -7.831042
RightLeg 76.978123 -0.000000 -0.000000
RightFoot -5.240543 -4.018615 10.649820
RightToeBase 0.939774 -0.000000 -0.000000
241
root 4.767919 36.603818 1.327416 -0.082515 -0.688677 0.987461
Spine 4.671723 8.681128 -7.325169
Head 12.781860 -5.725481 6.903300
LeftShoulder -7.720990 -7.918034 11.203616
LeftArm -12.821925 -33.680142 -40.817000
LeftForeArm 3.477807 0.000000 98.908051
LeftHand -17.097939 -0.000000 26.929567
LeftHandThumb1 -26.253704 0.000000 33.147579
RightShoulder -10.649860 -19.218098 2.341091
RightArm 21.669605 -26.696638 59.531755
RightForeArm 177.993179 0.000000 33.825011
RightHand 1.491501 -0.000000 -0.279175
RightHandThumb1 -24.326973 -0.000000 -32.862282
LeftUpLeg 0.424334 5.461788 -5.788764
LeftLeg 9.786516 -0.000000 -0.000000
LeftFoot -19.953245 3.736831 -13.143050
LeftToeBase 14.537345 -0.000000 -0.000000
RightUpLeg -14.422669 -10.691774 -7.811384
RightLeg 76.963249 -0.000000 -0.000000
RightFoot -5.346814 -3.921721 10.918732
RightToeBase 1.051640 -0.000000 -0.000000
242
root 4.761744 36.603004 1.314407 -0.086379 -0.654925 1.002216
Spine 4.678228 8.686997 -7.353811
Head 12.649341 -5.762899 6.887623
LeftShoulder -7.721724 -7.936362 11.177836
LeftArm -12.701641 -33.531782 -40.732627
LeftForeArm 3.448287 -0.000000 98.847267
LeftHand -17.132614 -0.000000 26.978745
LeftHandThumb1 -26.253704 0.000000 33.147579
RightShoulder -10.646974 -19.227458 2.360837
RightArm 21.666118 -26.809388 59.501084
RightForeArm 177.876938 0.000000 33.869209
RightHand 1.564242 -0.000000 -0.266901
RightHandThumb1 -24.326973 -0.000000 -32.862282
LeftUpLeg 0.408628 5.400363 -5.802154
LeftLeg 9.779138 -0.000000 -0.000000
LeftFoot -19.946810 3.776628 -13.174648
LeftToeBase 14.578444 -0.000000 -0.000000
RightUpLeg -14.547640 -10.681253 -7.803096
RightLeg 76.957480 -0.000000 -0.000000
RightFoot -5.320012 -3.929489 10.828156
RightToeBase 1.239701 -0.000000 -0.000000
243
root 4.756339 36.600930 1.301906 -0.094667 -0.603409 1.018832
Spine 4.685690 8.670931 -7.376661
Head 12.542688 -5.851399 6.901175
LeftShoulder -7.711669 -7.934362 11.154066
LeftArm -12.587849 -33.427390 -40.667160
LeftForeArm 3.436794 0.000000 98.778445
LeftHand -17.139150 -0.000000 27.019700
LeftHandThumb1 -26.253704 0.000000 33.147579
RightShoulder -10.652613 -19.242840 2.359641
RightArm 21.673657 -26.904731 59.480685
RightForeArm 177.789575 -0.000000 33.907310
RightHand 1.607658 -0.000000 -0.477215
RightHandThumb1 -24.326973 -0.000000 -32.862282
LeftUpLeg 0.396374 5.320875 -5.818728
LeftLeg 9.784296 -0.000000 -0.000000
LeftFoot -19.966064 3.844175 -13.137811
LeftToeBase 14.604353 -0.000000 -0.000000
RightUpLeg -14.658364 -10.704075 -7.792772
RightLeg 76.951140 -0.000000 -0.000000
RightFoot -5.295874 -3.936264 10.771712
RightToeBase 0.992010 -0.000000 -0.000000
244
root 4.751906 36.599466 1.290698 -0.102730 -0.563107 1.032969
Spine 4.691945 8.680673 -7.388857
Head 12.446933 -5.939098 6.880088
LeftShoulder -7.687423 -7.948351 11.108508
LeftArm -12.478775 -33.327421 -40.592599
LeftForeArm 3.441327 -0.000000 98.713882
LeftHand -17.165225 -0.000000 27.077086
LeftHandThumb1 -26.253704 0.000000 33.147579
RightShoulder -10.664293 -19.266058 2.362868
RightArm 21.678803 -26.982615 59.462566
RightForeArm 177.533931 -0.000000 33.934943
RightHand 1.652905 -0.000000 -0.605717
RightHandThumb1 -24.326973 -0.000000 -32.862282
LeftUpLeg 0.387449 5.232792 -5.838389
LeftLeg 9.779169 -0.000000 -0.000000
LeftFoot -19.983800 3.924158 -13.154217
LeftToeBase 14.659608 -0.000000 -0.000000
RightUpLeg -14.758747 -10.713962 -7.795641
RightLeg 76.940468 -0.000000 -0.000000
RightFoot -5.317525 -3.852935 10.783223
RightToeBase 1.118079 -0.000000 -0.000000
245
root 4.746320 36.597695 1.279629 -0.107855 -0.504068 1.051353
Spine 4.690136 8.675272 -7.418579
Head 12.350584 -5.998314 6.932449
LeftShoulder -7.652036 -7.939804 11.084463
LeftArm -12.375482 -33.235005 -40.520387
LeftForeArm 3.422798 0.000000 98.644472
LeftHand -17.202700 -0.000000 27.182260
LeftHandThumb1 -26.253704 0.000000 33.147579
RightShoulder -10.675942 -19.285324 2.382989
RightArm 21.688667 -27.085530 59.418754
RightForeArm 177.307525 -0.000000 33.960379
RightHand 1.607413 -0.000000 -0.699708
RightHandThumb1 -24.326973 -0.000000 -32.862282
LeftUpLeg 0.379216 5.142926 -5.860986
LeftLeg 9.762645 -0.000000 -0.000000
LeftFoot -19.999691 4.001670 -13.188636
LeftToeBase 14.728040 -0.000000 -0.000000
RightUpLeg -14.854247 -10.751643 -7.805773
RightLeg 76.927354 -0.000000 -0.000000
RightFoot -5.402422 -3.834880 10.938180
RightToeBase 1.444774 -0.000000 -0.000000
246
root 4.741637 36.596679 1.268455 -0.119605 -0.471413 1.073973
Spine 4.705466 8.694050 -7.445818
Head 12.240135 -6.019829 6.877364
LeftShoulder -7.637473 -7.986876 11.033760
LeftArm -12.266792 -33.140738 -40.429706
LeftForeArm 3.415002 -0.000000 98.570394
LeftHand -17.258113 -0.000000 27.211567
LeftHandThumb1 -26.253704 0.000000 33.147579
RightShoulder -10.693539 -19.276377 2.397212
RightArm 21.681702 -27.176880 59.391766
RightForeArm 177.150148 -0.000000 33.981764
RightHand 1.608549 -0.000000 -0.742954
RightHandThumb1 -24.326973 -0.000000 -32.862282
LeftUpLeg 0.377941 5.071534 -5.882717
LeftLeg 9.748090 -0.000000 -0.000000
LeftFoot -19.979766 4.056789 -13.175017
LeftToeBase 14.707554 -0.000000 -0.000000
RightUpLeg -14.943928 -10.758859 -7.811746
RightLeg 76.915249 -0.000000 -0.000000
RightFoot -5.394496 -3.815005 10.996507
RightToeBase 1.456308 -0.000000 -0.000000
247
root 4.735965 36.595324 1.254806 -0.131591 -0.405775 1.095813
Spine 4.721261 8.690475 -7.471333
Head 12.127094 -6.103154 6.908918
LeftShoulder -7.607421 -8.021243 11.002436
LeftArm -12.151321 -33.045369 -40.369260
LeftForeArm 3.416305 -0.000000 98.485508
LeftHand -17.295075 -0.000000 27.285924
LeftHandThumb1 -26.253704 0.000000 33.147579
RightShoulder -10.719202 -19.305602 2.416349
RightArm 21.729228 -27.245071 59.347518
RightForeArm 177.025286 -0.000000 33.975214
RightHand 1.598521 -0.000000 -0.932557
RightHandThumb1 -24.326973 -0.000000 -32.862282
LeftUpLeg 0.358532 5.008814 -5.903037
LeftLeg 9.765837 -0.000000 -0.000000
LeftFoot -19.979970 4.107122 -13.143314
LeftToeBase 14.719598 -0.000000 -0.000000
RightUpLeg -15.028994 -10.835231 -7.823030
RightLeg 76.907068 -0.000000 -0.000000
RightFoot -5.335942 -3.811974 10.769387
RightToeBase 1.275861 -0.000000 -0.000000
248
root 4.729639 36.594312 1.240976 -0.144739 -0.337877 1.111759
Spine 4.746961 8.672579 -7.496352
Head 12.041502 -6.147391 6.937050
LeftShoulder -7.589382 -8.051143 10.983836
LeftArm -12.042677 -32.975452 -40.328182
LeftForeArm 3.403000 -0.000000 98.406470
LeftHand -17.313474 -0.000000 27.336035
LeftHandThumb1 -26.253704 0.000000 33.147579
RightShoulder -10.716131 -19.313637 2.423356
RightArm 21.747241 -27.323102 59.323654
RightForeArm 176.864161 -0.000000 33.971947
RightHand 1.569988 -0.000000 -1.061155
RightHandThumb1 -24.326973 -0.000000 -32.862282
LeftUpLeg 0.337924 4.934969 -5.913190
LeftLeg 9.791782 -0.000000 -0.000000
LeftFoot -19.972634 4.128980 -13.144720
LeftToeBase 14.708034 -0.000000 -0.000000
RightUpLeg -15.108692 -10.875958 -7.820795
RightLeg 76.891235 -0.000000 -0.000000
RightFoot -5.316249 -3.728398 10.757444
RightToeBase 1.444832 -0.000000 -0.000000
249
root 4.723901 36.593744 1.228079 -0.151570 -0.274934 1.128476
Spine 4.757182 8.659348 -7.521630
Head 11.946083 -6.160231 6.982465
LeftShoulder -7.568180 -8.078356 10.976081
LeftArm -11.993181 -32.875367 -40.286220
LeftForeArm 3.387023 0.000000 98.348800
LeftHand -17.227007 -0.000000 27.329235
LeftHandThumb1 -26.253704 0.000000 33.147579
RightShoulder -10.743037 -19.332041 2.443432
RightArm 21.788176 -27.375885 59.295261
RightForeArm 176.706649 -0.000000 33.951222
RightHand 1.473290 -0.000000 -1.237726
RightHandThumb1 -24.326973 -0.000000 -32.862282
LeftUpLeg 0.316804 4.881696 -5.923670
LeftLeg 9.807589 -0.000000 -0.000000
LeftFoot -19.963278 4.141222 -13.119869
LeftToeBase 14.724957 -0.000000 -0.000000
RightUpLeg -15.191487 -10.914239 -7.813272
RightLeg 76.869108 -0.000000 -0.000000
RightFoot -5.407853 -3.721319 11.100278
RightToeBase 1.397448 -0.000000 -0.000000
250
root 4.718868 36.593636 1.217225 -0.159898 -0.224188 1.141369
Spine 4.762971 8.666014 -7.529245
Head 11.858122 -6.191207 6.961428
LeftShoulder -7.535681 -8.115408 10.928117
LeftArm -11.927443 -32.785527 -40.192381
LeftForeArm 3.314699 0.000000 98.274629
LeftHand -17.224822 -0.000000 27.319536
LeftHandThumb1 -26.253704 0.000000 33.147579
RightShoulder -10.733769 -19.333880 2.436453
RightArm 21.788457 -27.504902 59.241057
RightForeArm 176.669719 -0.000000 33.955544
RightHand 1.604541 -0.000000 -1.108454
RightHandThumb1 -24.326973 -0.000000 -32.862282
LeftUpLeg 0.301625 4.847345 -5.930551
LeftLeg 9.820131 -0.000000 -0.000000
LeftFoot -19.951724 4.141121 -13.124889
LeftToeBase 14.743383 -0.000000 -0.000000
RightUpLeg -15.256366 -10.933938 -7.802741
RightLeg 76.841381 -0.000000 -0.000000
RightFoot -5.253939 -3.813148 10.544849
RightToeBase 0.909773 -0.000000 -0.000000
251
root 4.714042 36.593624 1.207156 -0.165863 -0.177863 1.150511
Spine 4.766948 8.688661 -7.539845
Head 11.788839 -6.226046 6.927930
LeftShoulder -7.537392 -8.134186 10.905293
LeftArm -11.768253 -32.735693 -40.211125
LeftForeArm 3.310691 -0.000000 98.187229
LeftHand -17.214312 -0.000000 27.267562
LeftHandThumb1 -26.253704 0.000000 33.147579
RightShoulder -10.752685 -19.338129 2.452920
RightArm 21.788005 -27.571668 59.208115
RightForeArm 176.592335 -0.000000 33.937886
RightHand 1.540438 0.000000 -1.170493
RightHandThumb1 -24.326973 -0.000000 -32.862282
LeftUpLeg 0.288221 4.820332 -5.933483
LeftLeg 9.824972 -0.000000 -0.000000
LeftFoot -19.941327 4.145716 -13.116442
LeftToeBase 14.759584 -0.000000 -0.000000
RightUpLeg -15.323270 -10.962679 -7.798841
RightLeg 76.820790 -0.000000 -0.000000
RightFoot -5.314738 -3.735348 10.622692
RightToeBase 1.166185 -0.000000 -0.000000
